<svg xmlns="http://www.w3.org/2000/svg" xmlns:xlink="http://www.w3.org/1999/xlink" fill="none" version="1.1" width="1024" height="1024" viewBox="0 0 1024 1024"><defs><clipPath id="master_svg0_16_0733"><rect x="0" y="0" width="1024" height="1024" rx="0"/></clipPath></defs><g clip-path="url(#master_svg0_16_0733)"><g><path d="M124.58400175476075,440.11997143554686Q93.35200175476074,440.11997143554686,65.44800175476074,436.02397143554685Q37.54400175476074,431.92797143554685,21.160001754760742,427.31997143554685L21.160001754760742,359.2239714355469Q29.352001754760742,362.2959714355469,41.128001754760746,364.85597143554685Q52.90400175476074,367.41597143554685,66.21600175476074,369.2079714355469Q79.52800175476074,370.99997143554685,93.60800175476074,372.2799714355469Q107.68800175476075,373.55997143554686,121.51200175476075,373.55997143554686Q138.92000175476073,373.55997143554686,150.95200175476074,371.51197143554685Q162.98400175476075,369.46397143554685,170.40800175476073,364.34397143554685Q177.83200175476074,359.2239714355469,180.90400175476074,351.0319714355469Q183.97600175476074,342.8399714355469,183.97600175476074,331.0639714355469Q183.97600175476074,320.82397143554687,181.41600175476074,313.6559714355469Q178.85600175476074,306.4879714355469,171.94400175476073,300.85597143554685Q165.03200175476076,295.2239714355469,152.48800175476075,290.61597143554684Q139.94400175476073,286.0079714355469,119.46400175476074,280.8879714355469Q90.79200175476075,274.2319714355469,72.10400175476074,266.2959714355469Q53.41600175476074,258.35997143554687,42.15200175476075,246.8399714355469Q30.888001754760744,235.31997143554688,26.280001754760743,218.93597143554686Q21.67200075476074,202.55197143554688,21.67200075476074,178.48797143554688Q21.67200075476074,122.16797143554687,55.720001754760744,98.35997143554687Q89.76800175476075,74.55197143554688,151.72000175476074,74.55197143554688Q181.92800175476074,74.55197143554688,205.22400175476074,78.39200143554687Q228.52000175476076,82.23199143554687,242.85600175476074,87.35197143554687L242.85600175476074,151.3519714355469Q236.20000175476073,149.30397143554688,225.96000175476075,146.99997143554685Q215.72000175476074,144.69597143554688,203.43200175476073,142.64797143554688Q191.14400175476075,140.59997143554688,178.60000175476074,139.57597143554688Q166.05600175476073,138.55197143554688,154.79200175476075,138.55197143554688Q124.58400175476075,138.55197143554688,111.01600175476074,146.23197143554688Q97.44800175476074,153.9119714355469,97.44800175476074,176.43997143554688Q97.44800175476074,185.14397143554686,99.49600175476074,191.28797143554686Q101.54400175476074,197.43197143554687,107.94400175476075,202.29597143554687Q114.34400175476074,207.15997143554688,126.37600175476074,211.25597143554688Q138.40800175476073,215.3519714355469,157.86400175476075,219.95997143554686Q189.60800175476075,227.63997143554687,209.83200175476074,237.11197143554688Q230.05600175476073,246.58397143554689,241.57600175476074,259.63997143554684Q253.09600175476075,272.6959714355469,257.1920017547608,290.35997143554687Q261.2880017547607,308.02397143554685,261.2880017547607,333.1119714355469Q261.2880017547607,385.33597143554687,229.54400175476073,412.72797143554686Q197.80000175476073,440.11997143554686,124.58400175476075,440.11997143554686ZM309.9280017547607,79.67200143554687L395.94400175476073,79.67200143554687L481.44800175476075,352.0559714355469L484.52000175476076,352.0559714355469L573.0960017547608,79.67200143554687L653.9920017547607,79.67200143554687L529.0640017547607,434.99997143554685L432.29600175476077,434.99997143554685L309.9280017547607,79.67200143554687ZM880.8080017547608,440.11997143554686Q839.8480017547607,440.11997143554686,807.3360017547608,432.43997143554685Q774.8240017547607,424.7599714355469,752.2960017547607,404.53597143554686Q729.7680017547607,384.31197143554687,717.7360017547608,348.72797143554686Q705.7040017547607,313.14397143554686,705.7040017547607,257.33597143554687Q705.7040017547607,206.13597143554688,717.9920017547607,171.06397143554688Q730.2800017547607,135.99197143554687,753.3200017547607,114.48797143554688Q776.3600017547608,92.98397143554688,809.1280017547607,83.76797143554687Q841.8960017547607,74.55197143554688,883.3680017547607,74.55197143554688Q896.1680017547608,74.55197143554688,909.7360017547608,75.57599143554687Q923.3040017547607,76.59997143554688,935.8480017547607,78.13598143554688Q948.3920017547607,79.67200143554687,959.6560017547607,81.97598143554687Q970.9200017547607,84.27997143554687,979.1120017547607,87.35197143554687L979.1120017547607,155.4479714355469Q959.1440017547608,148.27997143554688,935.8480017547607,144.69597143554688Q912.5520017547608,141.11197143554688,889.5120017547607,141.11197143554688Q863.9120017547607,141.11197143554688,845.2240017547607,146.48797143554688Q826.5360017547607,151.8639714355469,814.5040017547608,165.43197143554687Q802.4720017547608,178.99997143554685,796.5840017547607,201.27197143554687Q790.6960017547607,223.54397143554687,790.6960017547607,257.33597143554687Q790.6960017547607,292.66397143554684,795.8160017547607,315.44797143554683Q800.9360017547607,338.2319714355469,812.2000017547607,351.28797143554686Q823.4640017547607,364.34397143554685,841.6400017547608,369.46397143554685Q859.8160017547607,374.58397143554686,885.9280017547608,374.58397143554686Q896.6800017547607,374.58397143554686,905.8960017547607,374.07197143554686Q915.1120017547607,373.55997143554686,923.8160017547607,371.51197143554685L923.8160017547607,294.71197143554684L863.4000017547608,294.71197143554684L863.4000017547608,229.68797143554687L996.0080017547607,229.68797143554687L996.0080017547607,424.2479714355469Q976.0400017547607,430.90397143554685,945.0640017547607,435.51197143554685Q914.0880017547607,440.11997143554686,880.8080017547608,440.11997143554686Z" fill="#4840E3" fill-opacity="1"/></g><g><path d="M159.4879678955078,568.672031953125L159.4879678955078,924.000001953125L68.86396789550781,924.000001953125L68.86396789550781,568.672031953125L159.4879678955078,568.672031953125ZM274.1759678955078,746.336001953125Q274.1759678955078,648.032001953125,318.7199678955078,605.792001953125Q363.2639678955078,563.552001953125,447.2319678955078,563.552001953125Q498.4319678955078,563.552001953125,532.7359678955079,575.840001953125L532.7359678955079,653.152001953125Q496.8959678955078,640.352001953125,453.8879678955078,640.352001953125Q424.7039678955078,640.352001953125,407.0399678955078,650.336001953125Q389.3759678955078,660.320001953125,381.1839678955078,683.360001953125Q372.9919678955078,706.400001953125,372.9919678955078,746.336001953125Q372.9919678955078,787.808001953125,381.43996789550783,810.336001953125Q389.8879678955078,832.864001953125,407.29596789550783,841.8240019531249Q424.7039678955078,850.784001953125,454.3999678955078,850.784001953125Q499.4559678955078,850.784001953125,536.8319678955079,837.4720019531251L536.8319678955079,914.784001953125Q519.9359678955078,921.4400019531249,496.8959678955078,925.2800019531251Q473.85596789550783,929.120001953125,449.7919678955078,929.120001953125Q392.4479678955078,929.120001953125,354.3039678955078,913.7600019531251Q316.1599678955078,898.400001953125,295.1679678955078,858.208001953125Q274.1759678955078,818.0160019531249,274.1759678955078,746.336001953125ZM635.1359678955079,746.336001953125Q635.1359678955079,675.680001953125,654.0799678955078,635.488001953125Q673.0239678955078,595.296001953125,708.6079678955078,579.424001953125Q744.1919678955078,563.552001953125,799.4879678955078,563.552001953125Q855.2959678955078,563.552001953125,890.8799678955078,579.424001953125Q926.4639678955078,595.296001953125,945.1519678955078,635.488001953125Q963.8399678955078,675.680001953125,963.8399678955078,746.336001953125Q963.8399678955078,817.504001953125,945.1519678955078,857.4400019531249Q926.4639678955078,897.3760019531251,890.8799678955078,913.248001953125Q855.2959678955078,929.120001953125,799.4879678955078,929.120001953125Q744.1919678955078,929.120001953125,708.6079678955078,913.248001953125Q673.0239678955078,897.3760019531251,654.0799678955078,857.4400019531249Q635.1359678955079,817.504001953125,635.1359678955079,746.336001953125ZM799.4879678955078,853.856001953125Q828.1599678955079,853.856001953125,843.0079678955078,843.8720019531249Q857.8559678955078,833.888001953125,863.4879678955078,811.360001953125Q869.1199678955078,788.832001953125,869.1199678955078,746.336001953125Q869.1199678955078,703.840001953125,863.4879678955078,680.800001953125Q857.8559678955078,657.760001953125,843.0079678955078,647.520001953125Q828.1599678955079,637.280001953125,799.4879678955078,637.280001953125Q771.3279678955079,637.280001953125,756.4799678955078,647.520001953125Q741.6319678955078,657.760001953125,735.9999678955078,680.800001953125Q730.3679678955078,703.840001953125,730.3679678955078,746.336001953125Q730.3679678955078,788.832001953125,735.9999678955078,811.360001953125Q741.6319678955078,833.888001953125,756.4799678955078,843.8720019531249Q771.3279678955079,853.856001953125,799.4879678955078,853.856001953125Z" fill="#FF0000" fill-opacity="1"/></g></g></svg>